<?xml version="1.0" encoding="utf-8"?>
<!-- Generator: Adobe Illustrator 18.0.0, SVG Export Plug-In . SVG Version: 6.00 Build 0)  -->
<!DOCTYPE svg PUBLIC "-//W3C//DTD SVG 1.1//EN" "http://www.w3.org/Graphics/SVG/1.1/DTD/svg11.dtd">
<svg version="1.1" id="Layer_1" xmlns="http://www.w3.org/2000/svg" xmlns:xlink="http://www.w3.org/1999/xlink" x="0px" y="0px"
	 viewBox="0 0 2560 1250" enable-background="new 0 0 2560 1250" xml:space="preserve">
<g>
	<path fill="#FFFDFE" stroke="#FFFDFE" d="M2708,46l34,121l-64-245L2708,46z"/>
	<path fill="#FFFCFD" stroke="#FFFCFD" d="M2588,29l120,17l-30-124L2588,29z"/>
	<path fill="#FFFBFD" stroke="#FFFBFD" d="M2582-52l6,81l90-107L2582-52z"/>
	<path fill="#FCF9FC" stroke="#FCF9FC" d="M2368-63l214,11l96-26L2368-63z"/>
	<path fill="#F9F6FA" stroke="#F9F6FA" d="M2209-81l159,18l310-15L2209-81z"/>
	<path fill="#F3F1F8" stroke="#F3F1F8" d="M1892-86l317,5l469,3L1892-86z"/>
	<path fill="#D5DFEE" stroke="#D5DFEE" d="M573-100l1319,14l786,8L573-100z"/>
	<path fill="#FDF9FC" stroke="#FDF9FC" d="M2487-15l101,44l-6-81L2487-15z"/>
	<path fill="#FAF7FB" stroke="#FAF7FB" d="M2368-63l119,48l95-37L2368-63z"/>
	<path fill="#FBF8FB" stroke="#FBF8FB" d="M2425,100l163-71l-101-44L2425,100z"/>
	<path fill="#F9F6FA" stroke="#F9F6FA" d="M2368-63l57,163l62-115L2368-63z"/>
	<path fill="#F7F4F9" stroke="#F7F4F9" d="M2308,32l117,68l-57-163L2308,32z"/>
	<path fill="#F5F2F8" stroke="#F5F2F8" d="M2209-81l99,113l60-95L2209-81z"/>
	<path fill="#F3F1F7" stroke="#F3F1F7" d="M2229,25l79,7l-99-113L2229,25z"/>
	<path fill="#F0EFF6" stroke="#F0EFF6" d="M2138-18l91,43l-20-106L2138-18z"/>
	<path fill="#ECECF5" stroke="#ECECF5" d="M1948-31l190,13l71-63L1948-31z"/>
	<path fill="#E8E9F3" stroke="#E8E9F3" d="M1892-86l56,55l261-50L1892-86z"/>
	<path fill="#EFEEF6" stroke="#EFEEF6" d="M2125,38l104-13l-91-43L2125,38z"/>
	<path fill="#EBEBF4" stroke="#EBEBF4" d="M1948-31l177,69l13-56L1948-31z"/>
	<path fill="#E9E9F3" stroke="#E9E9F3" d="M1998,92l127-54l-177-69L1998,92z"/>
	<path fill="#E3E6F1" stroke="#E3E6F1" d="M1823,17l175,75l-50-123L1823,17z"/>
	<path fill="#E0E5F1" stroke="#E0E5F1" d="M1892-86l-69,103l125-48L1892-86z"/>
	<path fill="#DCE3F0" stroke="#DCE3F0" d="M1758-50l65,67l69-103L1758-50z"/>
	<path fill="#D4DFEE" stroke="#D4DFEE" d="M1457-53l301,3l134-36L1457-53z"/>
	<path fill="#CADBEB" stroke="#CADBEB" d="M1364-74l93,21l435-33L1364-74z"/>
	<path fill="#BAD4E7" stroke="#BAD4E7" d="M826-92l538,18l528-12L826-92z"/>
	<path fill="#A0CAE1" stroke="#A0CAE1" d="M573-100l253,8l1066,6L573-100z"/>
	<path fill="#D9E1EF" stroke="#D9E1EF" d="M1753,91l70-74l-65-67L1753,91z"/>
	<path fill="#D4DFEE" stroke="#D4DFEE" d="M1607-19l146,110l5-141L1607-19z"/>
	<path fill="#CDDCEC" stroke="#CDDCEC" d="M1457-53l150,34l151-31L1457-53z"/>
	<path fill="#D0DDED" stroke="#D0DDED" d="M1594,68l159,23L1607-19L1594,68z"/>
	<path fill="#CBDBEB" stroke="#CBDBEB" d="M1539,21l55,47l13-87L1539,21z"/>
	<path fill="#C7DAEB" stroke="#C7DAEB" d="M1457-53l82,74l68-40L1457-53z"/>
	<path fill="#C2D8E9" stroke="#C2D8E9" d="M1411,60l128-39l-82-74L1411,60z"/>
	<path fill="#BED6E8" stroke="#BED6E8" d="M1364-74l47,134l46-113L1364-74z"/>
	<path fill="#B9D4E7" stroke="#B9D4E7" d="M1282,60h129l-47-134L1282,60z"/>
	<path fill="#B3D1E6" stroke="#B3D1E6" d="M1220-75l62,135l82-134L1220-75z"/>
	<path fill="#A4CBE2" stroke="#A4CBE2" d="M826-92l394,17l144,1L826-92z"/>
	<path fill="#ACCFE4" stroke="#ACCFE4" d="M1170-48l112,108l-62-135L1170-48z"/>
	<path fill="#A3CBE2" stroke="#A3CBE2" d="M992-25l178-23l50-27L992-25z"/>
	<path fill="#9BC8E0" stroke="#9BC8E0" d="M921-43l71,18l228-50L921-43z"/>
	<path fill="#97C5DE" stroke="#97C5DE" d="M826-92l95,49l299-32L826-92z"/>
	<path fill="#AACEE3" stroke="#AACEE3" d="M1148,105l134-45L1170-48L1148,105z"/>
	<path fill="#A1CAE1" stroke="#A1CAE1" d="M1011,89l137,16l22-153L1011,89z"/>
	<path fill="#9CC8E0" stroke="#9CC8E0" d="M992-25l19,114l159-137L992-25z"/>
	<path fill="#95C4DE" stroke="#95C4DE" d="M898,79l113,10L992-25L898,79z"/>
	<path fill="#93C3DD" stroke="#93C3DD" d="M921-43L898,79l94-104L921-43z"/>
	<path fill="#8EBFDC" stroke="#8EBFDC" d="M794,86l104-7l23-122L794,86z"/>
	<path fill="#8CBEDB" stroke="#8CBEDB" d="M826-92L794,86L921-43L826-92z"/>
	<path fill="#85BAD9" stroke="#85BAD9" d="M660,49l134,37l32-178L660,49z"/>
	<path fill="#82B7D6" stroke="#82B7D6" d="M619-93l41,142L826-92L619-93z"/>
	<path fill="#82B5D4" stroke="#82B5D4" d="M573-100l46,7l207,1L573-100z"/>
	<path fill="#82B2CF" stroke="#82B2CF" d="M573-100l87,149L619-93L573-100z"/>
	<path fill="#82AFCB" stroke="#82AFCB" d="M461-28l199,77l-87-149L461-28z"/>
	<path fill="#81A9C0" stroke="#81A9C0" d="M278-44l183,16l112-72L278-44z"/>
	<path fill="#81A4BA" stroke="#81A4BA" d="M223-64l55,20l295-56L223-64z"/>
	<path fill="#81A1B4" stroke="#81A1B4" d="M57-85l166,21l350-36L57-85z"/>
	<path fill="#819BAB" stroke="#819BAB" d="M-99-99L57-85l516-15L-99-99z"/>
	<path fill="#82AEC9" stroke="#82AEC9" d="M513,104l147-55L461-28L513,104z"/>
	<path fill="#81AAC2" stroke="#81AAC2" d="M391,90l122,14L461-28L391,90z"/>
	<path fill="#81A6BD" stroke="#81A6BD" d="M335,35l56,55l70-118L335,35z"/>
	<path fill="#81A4BA" stroke="#81A4BA" d="M278-44l57,79l126-63L278-44z"/>
	<path fill="#81A0B3" stroke="#81A0B3" d="M217,90l118-55l-57-79L217,90z"/>
	<path fill="#819EB0" stroke="#819EB0" d="M223-64l-6,154l61-134L223-64z"/>
	<path fill="#819AAA" stroke="#819AAA" d="M57-85L217,90l6-154L57-85z"/>
	<path fill="#8097A4" stroke="#8097A4" d="M31,81l186,9L57-85L31,81z"/>
	<path fill="#80939E" stroke="#80939E" d="M-18,49l49,32L57-85L-18,49z"/>
	<path fill="#80909A" stroke="#80909A" d="M-99-99l81,148L57-85L-99-99z"/>
	<path fill="#808E97" stroke="#808E97" d="M-72,208l54-159L-99-99L-72,208z"/>
	<path fill="#808D95" stroke="#808D95" d="M-84,390l12-182L-99-99L-84,390z"/>
	<path fill="#6D8294" stroke="#6D8294" d="M-101,932l17-542L-99-99L-101,932z"/>
	<path fill="#FFFDFE" stroke="#FFFDFE" d="M2626,174l116-7l-34-121L2626,174z"/>
	<path fill="#FFFBFD" stroke="#FFFBFD" d="M2588,29l38,145l82-128L2588,29z"/>
	<path fill="#FCF9FC" stroke="#FCF9FC" d="M2425,100l201,74l-38-145L2425,100z"/>
	<path fill="#FBF8FB" stroke="#FBF8FB" d="M2455,224l171-50l-201-74L2455,224z"/>
	<path fill="#F8F5FA" stroke="#F8F5FA" d="M2342,169l113,55l-30-124L2342,169z"/>
	<path fill="#F7F4F9" stroke="#F7F4F9" d="M2308,32l34,137l83-69L2308,32z"/>
	<path fill="#F5F2F8" stroke="#F5F2F8" d="M2244,181l98-12l-34-137L2244,181z"/>
	<path fill="#F3F1F8" stroke="#F3F1F8" d="M2229,25l15,156l64-149L2229,25z"/>
	<path fill="#F0EFF6" stroke="#F0EFF6" d="M2125,38l119,143l-15-156L2125,38z"/>
	<path fill="#EFEEF6" stroke="#EFEEF6" d="M2097,163l147,18L2125,38L2097,163z"/>
	<path fill="#EBEBF4" stroke="#EBEBF4" d="M2020,140l77,23l28-125L2020,140z"/>
	<path fill="#EAEAF4" stroke="#EAEAF4" d="M1998,92l22,48l105-102L1998,92z"/>
	<path fill="#E5E7F2" stroke="#E5E7F2" d="M1876,212l144-72l-22-48L1876,212z"/>
	<path fill="#E1E5F1" stroke="#E1E5F1" d="M1823,17l53,195l122-120L1823,17z"/>
	<path fill="#DCE3F0" stroke="#DCE3F0" d="M1785,179l91,33l-53-195L1785,179z"/>
	<path fill="#DAE2EF" stroke="#DAE2EF" d="M1753,91l32,88l38-162L1753,91z"/>
	<path fill="#D5DFEE" stroke="#D5DFEE" d="M1610,175l175,4l-32-88L1610,175z"/>
	<path fill="#D1DDED" stroke="#D1DDED" d="M1594,68l16,107l143-84L1594,68z"/>
	<path fill="#C9DBEB" stroke="#C9DBEB" d="M1483,156l127,19l-16-107L1483,156z"/>
	<path fill="#C8DAEB" stroke="#C8DAEB" d="M1539,21l-56,135l111-88L1539,21z"/>
	<path fill="#C3D8E9" stroke="#C3D8E9" d="M1411,60l72,96l56-135L1411,60z"/>
	<path fill="#BFD6E8" stroke="#BFD6E8" d="M1384,205l99-49l-72-96L1384,205z"/>
	<path fill="#BAD4E7" stroke="#BAD4E7" d="M1282,60l102,145l27-145H1282z"/>
	<path fill="#B3D2E6" stroke="#B3D2E6" d="M1218,146l166,59L1282,60L1218,146z"/>
	<path fill="#ACCFE4" stroke="#ACCFE4" d="M1148,105l70,41l64-86L1148,105z"/>
	<path fill="#A8CDE3" stroke="#A8CDE3" d="M1176,165l42-19l-70-41L1176,165z"/>
	<path fill="#A3CBE2" stroke="#A3CBE2" d="M1059,224l117-59l-28-60L1059,224z"/>
	<path fill="#9EC9E0" stroke="#9EC9E0" d="M1011,89l48,135l89-119L1011,89z"/>
	<path fill="#97C6DF" stroke="#97C6DF" d="M920,151l139,73l-48-135L920,151z"/>
	<path fill="#93C3DD" stroke="#93C3DD" d="M898,79l22,72l91-62L898,79z"/>
	<path fill="#8DBFDB" stroke="#8DBFDB" d="M785,149l135,2l-22-72L785,149z"/>
	<path fill="#8ABDDA" stroke="#8ABDDA" d="M794,86l-9,63l113-70L794,86z"/>
	<path fill="#84B9D8" stroke="#84B9D8" d="M660,49l125,100l9-63L660,49z"/>
	<path fill="#82B6D5" stroke="#82B6D5" d="M629,168l156-19L660,49L629,168z"/>
	<path fill="#82B2CF" stroke="#82B2CF" d="M550,148l79,20l31-119L550,148z"/>
	<path fill="#82B0CC" stroke="#82B0CC" d="M513,104l37,44l110-99L513,104z"/>
	<path fill="#82ABC4" stroke="#82ABC4" d="M402,148h148l-37-44L402,148z"/>
	<path fill="#81A9C0" stroke="#81A9C0" d="M391,90l11,58l111-44L391,90z"/>
	<path fill="#81A4BA" stroke="#81A4BA" d="M282,171l120-23l-11-58L282,171z"/>
	<path fill="#81A3B8" stroke="#81A3B8" d="M335,35l-53,136l109-81L335,35z"/>
	<path fill="#81A0B3" stroke="#81A0B3" d="M217,90l65,81l53-136L217,90z"/>
	<path fill="#819DAF" stroke="#819DAF" d="M172,189l110-18l-65-81L172,189z"/>
	<path fill="#8099A8" stroke="#8099A8" d="M31,81l141,108l45-99L31,81z"/>
	<path fill="#8096A2" stroke="#8096A2" d="M30,169l142,20L31,81L30,169z"/>
	<path fill="#80929D" stroke="#80929D" d="M-18,49l48,120l1-88L-18,49z"/>
	<path fill="#80909A" stroke="#80909A" d="M-72,208l102-39L-18,49L-72,208z"/>
	<path fill="#DCECFD" stroke="#DCECFD" d="M2714,455l18,429l10-717L2714,455z"/>
	<path fill="#FCFAFE" stroke="#FCFAFE" d="M2689,318l25,137l28-288L2689,318z"/>
	<path fill="#FEFBFE" stroke="#FEFBFE" d="M2626,174l63,144l53-151L2626,174z"/>
	<path fill="#FCF9FD" stroke="#FCF9FD" d="M2566,318h123l-63-144L2566,318z"/>
	<path fill="#FBF7FC" stroke="#FBF7FC" d="M2455,224l111,94l60-144L2455,224z"/>
	<path fill="#F8F5FB" stroke="#F8F5FB" d="M2472,287l94,31l-111-94L2472,287z"/>
	<path fill="#F6F4FA" stroke="#F6F4FA" d="M2363,308l109-21l-17-63L2363,308z"/>
	<path fill="#F6F3FA" stroke="#F6F3FA" d="M2342,169l21,139l92-84L2342,169z"/>
	<path fill="#F4F2F9" stroke="#F4F2F9" d="M2244,181l119,127l-21-139L2244,181z"/>
	<path fill="#F2F0F8" stroke="#F2F0F8" d="M2253,321l110-13l-119-127L2253,321z"/>
	<path fill="#EEEDF7" stroke="#EEEDF7" d="M2122,307l131,14l-9-140L2122,307z"/>
	<path fill="#EDEDF6" stroke="#EDEDF6" d="M2097,163l25,144l122-126L2097,163z"/>
	<path fill="#E8E8F4" stroke="#E8E8F4" d="M1943,290l179,17l-25-144L1943,290z"/>
	<path fill="#E8E8F3" stroke="#E8E8F3" d="M2020,140l-77,150l154-127L2020,140z"/>
	<path fill="#E3E6F2" stroke="#E3E6F2" d="M1876,212l67,78l77-150L1876,212z"/>
	<path fill="#DEE2F1" stroke="#DEE2F1" d="M1857,321l86-31l-67-78L1857,321z"/>
	<path fill="#DAE0F0" stroke="#DAE0F0" d="M1742,299l115,22l19-109L1742,299z"/>
	<path fill="#D9E1EF" stroke="#D9E1EF" d="M1785,179l-43,120l134-87L1785,179z"/>
	<path fill="#D3DEEE" stroke="#D3DEEE" d="M1610,175l132,124l43-120L1610,175z"/>
	<path fill="#CEDCED" stroke="#CEDCED" d="M1587,261l155,38l-132-124L1587,261z"/>
	<path fill="#C8D9EB" stroke="#C8D9EB" d="M1483,156l104,105l23-86L1483,156z"/>
	<path fill="#C3D7EA" stroke="#C3D7EA" d="M1462,333l125-72l-104-105L1462,333z"/>
	<path fill="#BFD5E9" stroke="#BFD5E9" d="M1384,205l78,128l21-177L1384,205z"/>
	<path fill="#BAD3E8" stroke="#BAD3E8" d="M1348,285l114,48l-78-128L1348,285z"/>
	<path fill="#B4D2E6" stroke="#B4D2E6" d="M1218,146l130,139l36-80L1218,146z"/>
	<path fill="#AFCFE5" stroke="#AFCFE5" d="M1247,341l101-56l-130-139L1247,341z"/>
	<path fill="#AACDE4" stroke="#AACDE4" d="M1176,165l71,176l-29-195L1176,165z"/>
	<path fill="#A6CBE3" stroke="#A6CBE3" d="M1143,333l104,8l-71-176L1143,333z"/>
	<path fill="#A1CAE2" stroke="#A1CAE2" d="M1059,224l84,109l33-168L1059,224z"/>
	<path fill="#9AC6E0" stroke="#9AC6E0" d="M978,290l165,43l-84-109L978,290z"/>
	<path fill="#95C3DE" stroke="#95C3DE" d="M920,151l58,139l81-66L920,151z"/>
	<path fill="#8FC0DD" stroke="#8FC0DD" d="M860,282l118,8l-58-139L860,282z"/>
	<path fill="#8CBEDB" stroke="#8CBEDB" d="M785,149l75,133l60-131L785,149z"/>
	<path fill="#88BBDA" stroke="#88BBDA" d="M807,313l53-31l-75-133L807,313z"/>
	<path fill="#82B7D8" stroke="#82B7D8" d="M646,323l161-10l-22-164L646,323z"/>
	<path fill="#81B5D5" stroke="#81B5D5" d="M629,168l17,155l139-174L629,168z"/>
	<path fill="#80B0CF" stroke="#80B0CF" d="M575,278l71,45l-17-155L575,278z"/>
	<path fill="#81B0CC" stroke="#81B0CC" d="M550,148l25,130l54-110L550,148z"/>
	<path fill="#80ACC7" stroke="#80ACC7" d="M443,303l132-25l-25-130L443,303z"/>
	<path fill="#80A9C3" stroke="#80A9C3" d="M402,148l41,155l107-155H402z"/>
	<path fill="#7FA4BD" stroke="#7FA4BD" d="M332,326l111-23l-41-155L332,326z"/>
	<path fill="#80A2B8" stroke="#80A2B8" d="M282,171l50,155l70-178L282,171z"/>
	<path fill="#7F9DB1" stroke="#7F9DB1" d="M159,259l173,67l-50-155L159,259z"/>
	<path fill="#809BAD" stroke="#809BAD" d="M172,189l-13,70l123-88L172,189z"/>
	<path fill="#7F97A6" stroke="#7F97A6" d="M30,169l129,90l13-70L30,169z"/>
	<path fill="#7E94A3" stroke="#7E94A3" d="M62,315l97-56L30,169L62,315z"/>
	<path fill="#7E919E" stroke="#7E919E" d="M-37,258l99,57L30,169L-37,258z"/>
	<path fill="#7F8F9A" stroke="#7F8F9A" d="M-72,208l35,50l67-89L-72,208z"/>
	<path fill="#7D8C97" stroke="#7D8C97" d="M-84,390l47-132l-35-50L-84,390z"/>
	<path fill="#F0F3FD" stroke="#F0F3FD" d="M2559,389l155,66l-25-137L2559,389z"/>
	<path fill="#F6F5FD" stroke="#F6F5FD" d="M2566,318l-7,71l130-71H2566z"/>
	<path fill="#F0F1FC" stroke="#F0F1FC" d="M2457,382l102,7l7-71L2457,382z"/>
	<path fill="#F5F3FB" stroke="#F5F3FB" d="M2472,287l-15,95l109-64L2472,287z"/>
	<path fill="#F4F2FA" stroke="#F4F2FA" d="M2363,308l94,74l15-95L2363,308z"/>
	<path fill="#ECEEFA" stroke="#ECEEFA" d="M2371,403l86-21l-94-74L2371,403z"/>
	<path fill="#EDEEF9" stroke="#EDEEF9" d="M2253,321l118,82l-8-95L2253,321z"/>
	<path fill="#E4E9F8" stroke="#E4E9F8" d="M2213,446l158-43l-118-82L2213,446z"/>
	<path fill="#E5E8F6" stroke="#E5E8F6" d="M2122,307l91,139l40-125L2122,307z"/>
	<path fill="#E0E5F5" stroke="#E0E5F5" d="M2080,381l133,65l-91-139L2080,381z"/>
	<path fill="#E4E6F4" stroke="#E4E6F4" d="M1943,290l137,91l42-74L1943,290z"/>
	<path fill="#DEE2F3" stroke="#DEE2F3" d="M1970,376l110,5l-137-91L1970,376z"/>
	<path fill="#DDE1F1" stroke="#DDE1F1" d="M1857,321l113,55l-27-86L1857,321z"/>
	<path fill="#D4DEF1" stroke="#D4DEF1" d="M1850,405l120-29l-113-55L1850,405z"/>
	<path fill="#D4DDF0" stroke="#D4DDF0" d="M1742,299l108,106l7-84L1742,299z"/>
	<path fill="#CCDAEF" stroke="#CCDAEF" d="M1764,431l86-26l-108-106L1764,431z"/>
	<path fill="#C4D6EE" stroke="#C4D6EE" d="M1625,453l139-22l-22-132L1625,453z"/>
	<path fill="#C9D8ED" stroke="#C9D8ED" d="M1587,261l38,192l117-154L1587,261z"/>
	<path fill="#BBD2EB" stroke="#BBD2EB" d="M1495,438l130,15l-38-192L1495,438z"/>
	<path fill="#BDD4EA" stroke="#BDD4EA" d="M1462,333l33,105l92-177L1462,333z"/>
	<path fill="#AECDE9" stroke="#AECDE9" d="M1356,437l139,1l-33-105L1356,437z"/>
	<path fill="#B2CFE8" stroke="#B2CFE8" d="M1348,285l8,152l106-104L1348,285z"/>
	<path fill="#ABCCE7" stroke="#ABCCE7" d="M1302,381l54,56l-8-152L1302,381z"/>
	<path fill="#ADCDE6" stroke="#ADCDE6" d="M1247,341l55,40l46-96L1247,341z"/>
	<path fill="#9CC6E4" stroke="#9CC6E4" d="M1127,457l175-76l-55-40L1127,457z"/>
	<path fill="#99C5E3" stroke="#99C5E3" d="M1143,333l-16,124l120-116L1143,333z"/>
	<path fill="#8EC0E1" stroke="#8EC0E1" d="M984,389l143,68l16-124L984,389z"/>
	<path fill="#93C2E0" stroke="#93C2E0" d="M978,290l6,99l159-56L978,290z"/>
	<path fill="#8EBFDD" stroke="#8EBFDD" d="M860,282l124,107l-6-99L860,282z"/>
	<path fill="#84BADC" stroke="#84BADC" d="M820,406l164-17L860,282L820,406z"/>
	<path fill="#84B9DA" stroke="#84B9DA" d="M807,313l13,93l40-124L807,313z"/>
	<path fill="#7CB4D9" stroke="#7CB4D9" d="M646,323l174,83l-13-93L646,323z"/>
	<path fill="#72AED7" stroke="#72AED7" d="M660,456l160-50l-174-83L660,456z"/>
	<path fill="#6FA7CE" stroke="#6FA7CE" d="M499,449l161,7l-14-133L499,449z"/>
	<path fill="#78AACC" stroke="#78AACC" d="M575,278l-76,171l147-126L575,278z"/>
	<path fill="#74A4C6" stroke="#74A4C6" d="M447,407l52,42l76-171L447,407z"/>
	<path fill="#7CA7C4" stroke="#7CA7C4" d="M443,303l4,104l128-129L443,303z"/>
	<path fill="#78A2BE" stroke="#78A2BE" d="M332,326l115,81l-4-104L332,326z"/>
	<path fill="#719BBA" stroke="#719BBA" d="M316,449l131-42l-115-81L316,449z"/>
	<path fill="#6D96B4" stroke="#6D96B4" d="M218,462l98-13l16-123L218,462z"/>
	<path fill="#7798B0" stroke="#7798B0" d="M159,259l59,203l114-136L159,259z"/>
	<path fill="#7794A8" stroke="#7794A8" d="M62,315l156,147l-59-203L62,315z"/>
	<path fill="#708EA5" stroke="#708EA5" d="M50,405l168,57L62,315L50,405z"/>
	<path fill="#748A9D" stroke="#748A9D" d="M-84,390l134,15l12-90L-84,390z"/>
	<path fill="#7B8D9A" stroke="#7B8D9A" d="M-37,258l-47,132l146-75L-37,258z"/>
	<path fill="#BDDFF8" stroke="#BDDFF8" d="M2704,630l28,254l-18-429L2704,630z"/>
	<path fill="#D3E7FC" stroke="#D3E7FC" d="M2679,573l25,57l10-175L2679,573z"/>
	<path fill="#D7E8FC" stroke="#D7E8FC" d="M2556,557l123,16l35-118L2556,557z"/>
	<path fill="#E2EBFD" stroke="#E2EBFD" d="M2559,389l-3,168l158-102L2559,389z"/>
	<path fill="#E3EBFC" stroke="#E3EBFC" d="M2457,382l99,175l3-168L2457,382z"/>
	<path fill="#D8E6FA" stroke="#D8E6FA" d="M2430,572l126-15l-99-175L2430,572z"/>
	<path fill="#DFE8FA" stroke="#DFE8FA" d="M2371,403l59,169l27-190L2371,403z"/>
	<path fill="#D3E2F9" stroke="#D3E2F9" d="M2347,563l83,9l-59-169L2347,563z"/>
	<path fill="#D5E2F8" stroke="#D5E2F8" d="M2217,500l130,63l24-160L2217,500z"/>
	<path fill="#DAE4F8" stroke="#DAE4F8" d="M2213,446l4,54l154-97L2213,446z"/>
	<path fill="#D0DEF5" stroke="#D0DEF5" d="M2067,495l150,5l-4-54L2067,495z"/>
	<path fill="#D5DFF5" stroke="#D5DFF5" d="M2080,381l-13,114l146-49L2080,381z"/>
	<path fill="#D5DFF3" stroke="#D5DFF3" d="M1970,376l97,119l13-114L1970,376z"/>
	<path fill="#CCDAF3" stroke="#CCDAF3" d="M2016,524l51-29l-97-119L2016,524z"/>
	<path fill="#CDDAF2" stroke="#CDDAF2" d="M1850,405l166,119l-46-148L1850,405z"/>
	<path fill="#C2D5F1" stroke="#C2D5F1" d="M1838,526l178-2l-166-119L1838,526z"/>
	<path fill="#C2D5F0" stroke="#C2D5F0" d="M1764,431l74,95l12-121L1764,431z"/>
	<path fill="#B5CFEE" stroke="#B5CFEE" d="M1721,557l117-31l-74-95L1721,557z"/>
	<path fill="#B6CFED" stroke="#B6CFED" d="M1625,453l96,104l43-126L1625,453z"/>
	<path fill="#A9CAEB" stroke="#A9CAEB" d="M1584,554l137,3l-96-104L1584,554z"/>
	<path fill="#ABCBEB" stroke="#ABCBEB" d="M1495,438l89,116l41-101L1495,438z"/>
	<path fill="#A0C6E9" stroke="#A0C6E9" d="M1482,567l102-13l-89-116L1482,567z"/>
	<path fill="#9CC5E8" stroke="#9CC5E8" d="M1353,526l129,41l13-129L1353,526z"/>
	<path fill="#A1C7E8" stroke="#A1C7E8" d="M1356,437l-3,89l142-88L1356,437z"/>
	<path fill="#92C1E6" stroke="#92C1E6" d="M1296,573l57-47l3-89L1296,573z"/>
	<path fill="#9AC4E6" stroke="#9AC4E6" d="M1302,381l-6,192l60-136L1302,381z"/>
	<path fill="#8EBFE4" stroke="#8EBFE4" d="M1137,518l159,55l6-192L1137,518z"/>
	<path fill="#8FC0E3" stroke="#8FC0E3" d="M1127,457l10,61l165-137L1127,457z"/>
	<path fill="#7AB7E0" stroke="#7AB7E0" d="M989,556l148-38l-10-61L989,556z"/>
	<path fill="#7EB8E0" stroke="#7EB8E0" d="M984,389l5,167l138-99L984,389z"/>
	<path fill="#78B4DE" stroke="#78B4DE" d="M891,456l98,100l-5-167L891,456z"/>
	<path fill="#7CB6DC" stroke="#7CB6DC" d="M820,406l71,50l93-67L820,406z"/>
	<path fill="#6CAFDC" stroke="#6CAFDC" d="M861,531l128,25l-98-100L861,531z"/>
	<path fill="#71B0DB" stroke="#71B0DB" d="M820,406l41,125l30-75L820,406z"/>
	<path fill="#6AACD9" stroke="#6AACD9" d="M737,502l124,29l-41-125L737,502z"/>
	<path fill="#6AABD8" stroke="#6AABD8" d="M660,456l77,46l83-96L660,456z"/>
	<path fill="#63A6D4" stroke="#63A6D4" d="M658,496l79,6l-77-46L658,496z"/>
	<path fill="#62A2CE" stroke="#62A2CE" d="M527,506l131-10l2-40L527,506z"/>
	<path fill="#65A0CB" stroke="#65A0CB" d="M499,449l28,57l133-50L499,449z"/>
	<path fill="#5C98C2" stroke="#5C98C2" d="M399,581l128-75l-28-57L399,581z"/>
	<path fill="#6399C1" stroke="#6399C1" d="M447,407l-48,174l100-132L447,407z"/>
	<path fill="#6396BC" stroke="#6396BC" d="M316,449l83,132l48-174L316,449z"/>
	<path fill="#5D91B6" stroke="#5D91B6" d="M279,504l120,77l-83-132L279,504z"/>
	<path fill="#6491B2" stroke="#6491B2" d="M218,462l61,42l37-55L218,462z"/>
	<path fill="#5C8BAD" stroke="#5C8BAD" d="M158,570l121-66l-61-42L158,570z"/>
	<path fill="#6289A7" stroke="#6289A7" d="M50,405l108,165l60-108L50,405z"/>
	<path fill="#5B83A2" stroke="#5B83A2" d="M42,572l116-2L50,405L42,572z"/>
	<path fill="#5E809C" stroke="#5E809C" d="M-72,520l114,52l8-167L-72,520z"/>
	<path fill="#688399" stroke="#688399" d="M-84,390l12,130L50,405L-84,390z"/>
	<path fill="#477391" stroke="#477391" d="M-101,932l29-412l-12-130L-101,932z"/>
	<path fill="#C6E1FA" stroke="#C6E1FA" d="M2619,652l85-22l-25-57L2619,652z"/>
	<path fill="#CAE2FA" stroke="#CAE2FA" d="M2556,557l63,95l60-79L2556,557z"/>
	<path fill="#C0DDF7" stroke="#C0DDF7" d="M2465,692l154-40l-63-95L2465,692z"/>
	<path fill="#C4DEF8" stroke="#C4DEF8" d="M2430,572l35,120l91-135L2430,572z"/>
	<path fill="#B8D8F5" stroke="#B8D8F5" d="M2373,686l92,6l-35-120L2373,686z"/>
	<path fill="#C1DBF6" stroke="#C1DBF6" d="M2347,563l26,123l57-114L2347,563z"/>
	<path fill="#B7D6F3" stroke="#B7D6F3" d="M2198,675l175,11l-26-123L2198,675z"/>
	<path fill="#C1D9F4" stroke="#C1D9F4" d="M2217,500l-19,175l149-112L2217,500z"/>
	<path fill="#B9D5F3" stroke="#B9D5F3" d="M2123,636l75,39l19-175L2123,636z"/>
	<path fill="#C3D8F3" stroke="#C3D8F3" d="M2067,495l56,141l94-136L2067,495z"/>
	<path fill="#BED5F2" stroke="#BED5F2" d="M2016,524l107,112l-56-141L2016,524z"/>
	<path fill="#B0CFF0" stroke="#B0CFF0" d="M1993,702l130-66l-107-112L1993,702z"/>
	<path fill="#A9CCEE" stroke="#A9CCEE" d="M1875,665l118,37l23-178L1875,665z"/>
	<path fill="#B1CEEF" stroke="#B1CEEF" d="M1838,526l37,139l141-141L1838,526z"/>
	<path fill="#A9CBEC" stroke="#A9CBEC" d="M1721,557l154,108l-37-139L1721,557z"/>
	<path fill="#9BC5EA" stroke="#9BC5EA" d="M1725,688l150-23l-154-108L1725,688z"/>
	<path fill="#94C1E8" stroke="#94C1E8" d="M1594,689l131-1l-4-131L1594,689z"/>
	<path fill="#9AC4E9" stroke="#9AC4E9" d="M1584,554l10,135l127-132L1584,554z"/>
	<path fill="#8FBFE7" stroke="#8FBFE7" d="M1543,644l51,45l-10-135L1543,644z"/>
	<path fill="#94C2E8" stroke="#94C2E8" d="M1482,567l61,77l41-90L1482,567z"/>
	<path fill="#8ABEE6" stroke="#8ABEE6" d="M1396,629l147,15l-61-77L1396,629z"/>
	<path fill="#8DBFE6" stroke="#8DBFE6" d="M1353,526l43,103l86-62L1353,526z"/>
	<path fill="#88BDE4" stroke="#88BDE4" d="M1296,573l100,56l-43-103L1296,573z"/>
	<path fill="#7EB9E3" stroke="#7EB9E3" d="M1267,624l129,5l-100-56L1267,624z"/>
	<path fill="#7DB8E2" stroke="#7DB8E2" d="M1137,518l130,106l29-51L1137,518z"/>
	<path fill="#70B3E0" stroke="#70B3E0" d="M1141,703l126-79l-130-106L1141,703z"/>
	<path fill="#62AEDC" stroke="#62AEDC" d="M1020,700l121,3l-4-185L1020,700z"/>
	<path fill="#67B0DD" stroke="#67B0DD" d="M989,556l31,144l117-182L989,556z"/>
	<path fill="#55A7D8" stroke="#55A7D8" d="M874,690l146,10l-31-144L874,690z"/>
	<path fill="#5DA9D9" stroke="#5DA9D9" d="M861,531l13,159l115-134L861,531z"/>
	<path fill="#54A4D7" stroke="#54A4D7" d="M819,625l55,65l-13-159L819,625z"/>
	<path fill="#5CA6D8" stroke="#5CA6D8" d="M737,502l82,123l42-94L737,502z"/>
	<path fill="#4FA0D5" stroke="#4FA0D5" d="M666,663l153-38l-82-123L666,663z"/>
	<path fill="#55A0D3" stroke="#55A0D3" d="M658,496l8,167l71-161L658,496z"/>
	<path fill="#559DCD" stroke="#559DCD" d="M527,506l139,157l-8-167L527,506z"/>
	<path fill="#4B96C8" stroke="#4B96C8" d="M511,647l155,16L527,506L511,647z"/>
	<path fill="#5093C1" stroke="#5093C1" d="M399,581l112,66l16-141L399,581z"/>
	<path fill="#438DBC" stroke="#438DBC" d="M423,694l88-47l-112-66L423,694z"/>
	<path fill="#4389B6" stroke="#4389B6" d="M314,649l109,45l-24-113L314,649z"/>
	<path fill="#508CB4" stroke="#508CB4" d="M279,504l35,145l85-68L279,504z"/>
	<path fill="#5088AE" stroke="#5088AE" d="M158,570l156,79l-35-145L158,570z"/>
	<path fill="#4882A9" stroke="#4882A9" d="M145,632l169,17l-156-79L145,632z"/>
	<path fill="#4C7FA3" stroke="#4C7FA3" d="M42,572l103,60l13-62L42,572z"/>
	<path fill="#457A9E" stroke="#457A9E" d="M34,682l111-50L42,572L34,682z"/>
	<path fill="#417597" stroke="#417597" d="M-64,684l98-2l8-110L-64,684z"/>
	<path fill="#4C7796" stroke="#4C7796" d="M-72,520l8,164L42,572L-72,520z"/>
	<path fill="#316A8D" stroke="#316A8D" d="M-101,932l37-248l-8-164L-101,932z"/>
	<path fill="#A4D5F2" stroke="#A4D5F2" d="M2693,775l39,109l-28-254L2693,775z"/>
	<path fill="#B6DCF6" stroke="#B6DCF6" d="M2619,652l74,123l11-145L2619,652z"/>
	<path fill="#ACD6F3" stroke="#ACD6F3" d="M2537,759l156,16l-74-123L2537,759z"/>
	<path fill="#B0D7F3" stroke="#B0D7F3" d="M2465,692l72,67l82-107L2465,692z"/>
	<path fill="#A4D1F0" stroke="#A4D1F0" d="M2435,779l102-20l-72-67L2435,779z"/>
	<path fill="#A8D2F1" stroke="#A8D2F1" d="M2373,686l62,93l30-87L2373,686z"/>
	<path fill="#9ECEEE" stroke="#9ECEEE" d="M2318,796l117-17l-62-93L2318,796z"/>
	<path fill="#9DCCEE" stroke="#9DCCEE" d="M2234,765l84,31l55-110L2234,765z"/>
	<path fill="#A5CEEF" stroke="#A5CEEF" d="M2198,675l36,90l139-79L2198,675z"/>
	<path fill="#99C8EB" stroke="#99C8EB" d="M2140,803l94-38l-36-90L2140,803z"/>
	<path fill="#A1CBED" stroke="#A1CBED" d="M2123,636l17,167l58-128L2123,636z"/>
	<path fill="#9CC8EB" stroke="#9CC8EB" d="M1993,702l147,101l-17-167L1993,702z"/>
	<path fill="#8EC2E7" stroke="#8EC2E7" d="M1985,789l155,14l-147-101L1985,789z"/>
	<path fill="#8BBFE7" stroke="#8BBFE7" d="M1902,786l83,3l8-87L1902,786z"/>
	<path fill="#92C2E8" stroke="#92C2E8" d="M1875,665l27,121l91-84L1875,665z"/>
	<path fill="#88BEE6" stroke="#88BEE6" d="M1754,766l148,20l-27-121L1754,766z"/>
	<path fill="#8CBFE7" stroke="#8CBFE7" d="M1725,688l29,78l121-101L1725,688z"/>
	<path fill="#7BB8E2" stroke="#7BB8E2" d="M1660,813l94-47l-29-78L1660,813z"/>
	<path fill="#7EB9E3" stroke="#7EB9E3" d="M1594,689l66,124l65-125L1594,689z"/>
	<path fill="#72B4E0" stroke="#72B4E0" d="M1502,763l158,50l-66-124L1502,763z"/>
	<path fill="#7CB8E3" stroke="#7CB8E3" d="M1543,644l-41,119l92-74L1543,644z"/>
	<path fill="#7CB8E2" stroke="#7CB8E2" d="M1396,629l106,134l41-119L1396,629z"/>
	<path fill="#6DB2DF" stroke="#6DB2DF" d="M1424,790l78-27l-106-134L1424,790z"/>
	<path fill="#72B4E0" stroke="#72B4E0" d="M1267,624l157,166l-28-161L1267,624z"/>
	<path fill="#5FADDB" stroke="#5FADDB" d="M1227,806l197-16l-157-166L1227,806z"/>
	<path fill="#5CABDB" stroke="#5CABDB" d="M1141,703l86,103l40-182L1141,703z"/>
	<path fill="#49A4D6" stroke="#49A4D6" d="M1145,822l82-16l-86-103L1145,822z"/>
	<path fill="#41A0D4" stroke="#41A0D4" d="M1009,814l136,8l-4-119L1009,814z"/>
	<path fill="#47A3D6" stroke="#47A3D6" d="M1020,700l-11,114l132-111L1020,700z"/>
	<path fill="#419FD3" stroke="#419FD3" d="M874,690l135,124l11-114L874,690z"/>
	<path fill="#3398D0" stroke="#3398D0" d="M863,821l146-7L874,690L863,821z"/>
	<path fill="#2F95CE" stroke="#2F95CE" d="M740,785l123,36l11-131L740,785z"/>
	<path fill="#3D9AD2" stroke="#3D9AD2" d="M819,625l-79,160l134-95L819,625z"/>
	<path fill="#3A98D0" stroke="#3A98D0" d="M666,663l74,122l79-160L666,663z"/>
	<path fill="#2A8FCA" stroke="#2A8FCA" d="M668,807l72-22l-74-122L668,807z"/>
	<path fill="#2C8DC6" stroke="#2C8DC6" d="M549,752l119,55l-2-144L549,752z"/>
	<path fill="#388FC4" stroke="#388FC4" d="M511,647l38,105l117-89L511,647z"/>
	<path fill="#368ABD" stroke="#368ABD" d="M423,694l126,58l-38-105L423,694z"/>
	<path fill="#2C85B8" stroke="#2C85B8" d="M418,766l131-14l-126-58L418,766z"/>
	<path fill="#3484B3" stroke="#3484B3" d="M314,649l104,117l5-72L314,649z"/>
	<path fill="#2B7DAD" stroke="#2B7DAD" d="M264,816l154-50L314,649L264,816z"/>
	<path fill="#2A78A6" stroke="#2A78A6" d="M170,774l94,42l50-167L170,774z"/>
	<path fill="#387CA6" stroke="#387CA6" d="M145,632l25,142l144-125L145,632z"/>
	<path fill="#2F749D" stroke="#2F749D" d="M67,763l103,11l-25-142L67,763z"/>
	<path fill="#36759B" stroke="#36759B" d="M34,682l33,81l78-131L34,682z"/>
	<path fill="#286B92" stroke="#286B92" d="M-47,812l114-49l-33-81L-47,812z"/>
	<path fill="#2D6C90" stroke="#2D6C90" d="M-64,684l17,128l81-130L-64,684z"/>
	<path fill="#1E6188" stroke="#1E6188" d="M-101,932l54-120l-17-128L-101,932z"/>
	<path fill="#9ACBED" stroke="#9ACBED" d="M2577,870l155,14l-39-109L2577,870z"/>
	<path fill="#9DCEEF" stroke="#9DCEEF" d="M2537,759l40,111l116-95L2537,759z"/>
	<path fill="#97C8EB" stroke="#97C8EB" d="M2470,887l107-17l-40-111L2470,887z"/>
	<path fill="#98CAEC" stroke="#98CAEC" d="M2435,779l35,108l67-128L2435,779z"/>
	<path fill="#93C4E9" stroke="#93C4E9" d="M2361,882l109,5l-35-108L2361,882z"/>
	<path fill="#94C7EA" stroke="#94C7EA" d="M2318,796l43,86l74-103L2318,796z"/>
	<path fill="#8EBFE7" stroke="#8EBFE7" d="M2244,924l117-42l-43-86L2244,924z"/>
	<path fill="#8FC2E8" stroke="#8FC2E8" d="M2234,765l10,159l74-128L2234,765z"/>
	<path fill="#8DC0E7" stroke="#8DC0E7" d="M2140,803l104,121l-10-159L2140,803z"/>
	<path fill="#86B7E3" stroke="#86B7E3" d="M2144,938l100-14l-104-121L2144,938z"/>
	<path fill="#82B5E1" stroke="#82B5E1" d="M1974,907l170,31l-4-135L1974,907z"/>
	<path fill="#85B9E3" stroke="#85B9E3" d="M1985,789l-11,118l166-104L1985,789z"/>
	<path fill="#81B7E2" stroke="#81B7E2" d="M1902,786l72,121l11-118L1902,786z"/>
	<path fill="#7BB3E0" stroke="#7BB3E0" d="M1833,856l141,51l-72-121L1833,856z"/>
	<path fill="#7BB7E1" stroke="#7BB7E1" d="M1754,766l79,90l69-70L1754,766z"/>
	<path fill="#73B0DE" stroke="#73B0DE" d="M1730,912l103-56l-79-90L1730,912z"/>
	<path fill="#71B0DE" stroke="#71B0DE" d="M1660,813l70,99l24-146L1660,813z"/>
	<path fill="#6AA9DA" stroke="#6AA9DA" d="M1591,878l139,34l-70-99L1591,878z"/>
	<path fill="#68ADDC" stroke="#68ADDC" d="M1502,763l89,115l69-65L1502,763z"/>
	<path fill="#60A7D9" stroke="#60A7D9" d="M1477,913l114-35l-89-115L1477,913z"/>
	<path fill="#5FA9DA" stroke="#5FA9DA" d="M1424,790l53,123l25-150L1424,790z"/>
	<path fill="#56A1D5" stroke="#56A1D5" d="M1354,927l123-14l-53-123L1354,927z"/>
	<path fill="#52A0D5" stroke="#52A0D5" d="M1296,877l58,50l70-137L1296,877z"/>
	<path fill="#52A3D7" stroke="#52A3D7" d="M1227,806l69,71l128-87L1227,806z"/>
	<path fill="#459BD2" stroke="#459BD2" d="M1159,929l137-52l-69-71L1159,929z"/>
	<path fill="#429BD1" stroke="#429BD1" d="M1145,822l14,107l68-123L1145,822z"/>
	<path fill="#3995CF" stroke="#3995CF" d="M1016,871l143,58l-14-107L1016,871z"/>
	<path fill="#3898D0" stroke="#3898D0" d="M1009,814l7,57l129-49L1009,814z"/>
	<path fill="#2F92CD" stroke="#2F92CD" d="M875,866l141,5l-7-57L875,866z"/>
	<path fill="#2D91CD" stroke="#2D91CD" d="M863,821l12,45l134-52L863,821z"/>
	<path fill="#248AC9" stroke="#248AC9" d="M759,893l116-27l-12-45L759,893z"/>
	<path fill="#238BC9" stroke="#238BC9" d="M740,785l19,108l104-72L740,785z"/>
	<path fill="#1E87C7" stroke="#1E87C7" d="M700,863l59,30l-19-108L700,863z"/>
	<path fill="#1F89C7" stroke="#1F89C7" d="M668,807l32,56l40-78L668,807z"/>
	<path fill="#1C81BF" stroke="#1C81BF" d="M507,880l193-17l-32-56L507,880z"/>
	<path fill="#1F82BD" stroke="#1F82BD" d="M549,752l-42,128l161-73L549,752z"/>
	<path fill="#2180B7" stroke="#2180B7" d="M418,766l89,114l42-128L418,766z"/>
	<path fill="#1B77B0" stroke="#1B77B0" d="M440,931l67-51l-89-114L440,931z"/>
	<path fill="#1D75AB" stroke="#1D75AB" d="M264,816l176,115l-22-165L264,816z"/>
	<path fill="#176BA3" stroke="#176BA3" d="M280,931h160L264,816L280,931z"/>
	<path fill="#18689D" stroke="#18689D" d="M191,900l89,31l-16-115L191,900z"/>
	<path fill="#1D6D9D" stroke="#1D6D9D" d="M170,774l21,126l73-84L170,774z"/>
	<path fill="#1B6796" stroke="#1B6796" d="M29,865l162,35l-21-126L29,865z"/>
	<path fill="#1F6A95" stroke="#1F6A95" d="M67,763L29,865l141-91L67,763z"/>
	<path fill="#1E658E" stroke="#1E658E" d="M-47,812l76,53l38-102L-47,812z"/>
	<path fill="#185B86" stroke="#185B86" d="M-101,932l130-67l-76-53L-101,932z"/>
	<path fill="#94C3E9" stroke="#94C3E9" d="M2577,870l151,108l4-94L2577,870z"/>
	<path fill="#91BAE1" stroke="#91BAE1" d="M2567,1050l161-72l-151-108L2567,1050z"/>
	<path fill="#8EBCE5" stroke="#8EBCE5" d="M2470,887l97,163l10-180L2470,887z"/>
	<path fill="#8DB6DD" stroke="#8DB6DD" d="M2443,987l124,63l-97-163L2443,987z"/>
	<path fill="#8CBBE5" stroke="#8CBBE5" d="M2361,882l82,105l27-100L2361,882z"/>
	<path fill="#8AB4DE" stroke="#8AB4DE" d="M2347,1023l96-36l-82-105L2347,1023z"/>
	<path fill="#88B6E1" stroke="#88B6E1" d="M2244,924l103,99l14-141L2244,924z"/>
	<path fill="#85AED7" stroke="#85AED7" d="M2193,1017l154,6l-103-99L2193,1017z"/>
	<path fill="#82AFDB" stroke="#82AFDB" d="M2144,938l49,79l51-93L2144,938z"/>
	<path fill="#80ABD7" stroke="#80ABD7" d="M2063,980l130,37l-49-79L2063,980z"/>
	<path fill="#7CADDC" stroke="#7CADDC" d="M1974,907l89,73l81-42L1974,907z"/>
	<path fill="#7AA7D5" stroke="#7AA7D5" d="M2017,1048l46-68l-89-73L2017,1048z"/>
	<path fill="#77A4D2" stroke="#77A4D2" d="M1864,997l153,51l-43-141L1864,997z"/>
	<path fill="#74AADB" stroke="#74AADB" d="M1833,856l31,141l110-90L1833,856z"/>
	<path fill="#6FA7DA" stroke="#6FA7DA" d="M1730,912l134,85l-31-141L1730,912z"/>
	<path fill="#6B9FD0" stroke="#6B9FD0" d="M1743,1023l121-26l-134-85L1743,1023z"/>
	<path fill="#679ED0" stroke="#679ED0" d="M1658,983l85,40l-13-111L1658,983z"/>
	<path fill="#64A2D7" stroke="#64A2D7" d="M1591,878l67,105l72-71L1591,878z"/>
	<path fill="#5D9BD0" stroke="#5D9BD0" d="M1489,1021l169-38l-67-105L1489,1021z"/>
	<path fill="#589CD4" stroke="#589CD4" d="M1477,913l12,108l102-143L1477,913z"/>
	<path fill="#5393C8" stroke="#5393C8" d="M1380,1033l109-12l-12-108L1380,1033z"/>
	<path fill="#4F96CE" stroke="#4F96CE" d="M1354,927l26,106l97-120L1354,927z"/>
	<path fill="#488EC4" stroke="#488EC4" d="M1239,1025l141,8l-26-106L1239,1025z"/>
	<path fill="#4594CE" stroke="#4594CE" d="M1296,877l-57,148l115-98L1296,877z"/>
	<path fill="#3F91CD" stroke="#3F91CD" d="M1159,929l80,96l57-148L1159,929z"/>
	<path fill="#398AC3" stroke="#398AC3" d="M1103,1000l136,25l-80-96L1103,1000z"/>
	<path fill="#328DCB" stroke="#328DCB" d="M1016,871l87,129l56-71L1016,871z"/>
	<path fill="#2D87C3" stroke="#2D87C3" d="M1006,1039l97-39l-87-129L1006,1039z"/>
	<path fill="#2983BF" stroke="#2983BF" d="M941,1037l65,2l10-168L941,1037z"/>
	<path fill="#2687C8" stroke="#2687C8" d="M875,866l66,171l75-166L875,866z"/>
	<path fill="#1F82C5" stroke="#1F82C5" d="M759,893l182,144l-66-171L759,893z"/>
	<path fill="#1B78B8" stroke="#1B78B8" d="M742,1055l199-18L759,893L742,1055z"/>
	<path fill="#1572B4" stroke="#1572B4" d="M674,1058l68-3l17-162L674,1058z"/>
	<path fill="#147AC0" stroke="#147AC0" d="M700,863l-26,195l85-165L700,863z"/>
	<path fill="#1472B4" stroke="#1472B4" d="M564,1005l110,53l26-195L564,1005z"/>
	<path fill="#1676B8" stroke="#1676B8" d="M507,880l57,125l136-142L507,880z"/>
	<path fill="#146FAF" stroke="#146FAF" d="M440,931l124,74l-57-125L440,931z"/>
	<path fill="#1368A5" stroke="#1368A5" d="M382,983l182,22l-124-74L382,983z"/>
	<path fill="#1366A2" stroke="#1366A2" d="M280,931l102,52l58-52H280z"/>
	<path fill="#135F95" stroke="#135F95" d="M279,1054l103-71l-102-52L279,1054z"/>
	<path fill="#135A8E" stroke="#135A8E" d="M208,1023l71,31l1-123L208,1023z"/>
	<path fill="#135E95" stroke="#135E95" d="M191,900l17,123l72-92L191,900z"/>
	<path fill="#135A8D" stroke="#135A8D" d="M94,976l114,47l-17-123L94,976z"/>
	<path fill="#145D90" stroke="#145D90" d="M29,865l65,111l97-76L29,865z"/>
	<path fill="#125688" stroke="#125688" d="M-14,987l108-11L29,865L-14,987z"/>
	<path fill="#135484" stroke="#135484" d="M-101,932l87,55l43-122L-101,932z"/>
	<path fill="#124871" stroke="#124871" d="M-50,1128l36-141l-87-55L-50,1128z"/>
	<path fill="#123756" stroke="#123756" d="M-71,1363l21-235l-51-196L-71,1363z"/>
	<path fill="#919FB5" stroke="#919FB5" d="M2670,1185l-13,219l71-426L2670,1185z"/>
	<path fill="#91AECC" stroke="#91AECC" d="M2567,1050l103,135l58-207L2567,1050z"/>
	<path fill="#90A5C0" stroke="#90A5C0" d="M2586,1143l84,42l-103-135L2586,1143z"/>
	<path fill="#8EA4C0" stroke="#8EA4C0" d="M2471,1179l115-36l-19-93L2471,1179z"/>
	<path fill="#8DAACA" stroke="#8DAACA" d="M2443,987l28,192l96-129L2443,987z"/>
	<path fill="#8BA9CA" stroke="#8BA9CA" d="M2347,1023l124,156l-28-192L2347,1023z"/>
	<path fill="#8AA2C1" stroke="#8AA2C1" d="M2326,1118l145,61l-124-156L2326,1118z"/>
	<path fill="#86A7CB" stroke="#86A7CB" d="M2193,1017l133,101l21-95L2193,1017z"/>
	<path fill="#84A0C2" stroke="#84A0C2" d="M2210,1142l116-24l-133-101L2210,1142z"/>
	<path fill="#819BBC" stroke="#819BBC" d="M2115,1185l95-43l-17-125L2115,1185z"/>
	<path fill="#7E9CC1" stroke="#7E9CC1" d="M2017,1048l98,137l78-168L2017,1048z"/>
	<path fill="#7EA4CE" stroke="#7EA4CE" d="M2063,980l-46,68l176-31L2063,980z"/>
	<path fill="#7B94B6" stroke="#7B94B6" d="M1968,1153l147,32l-98-137L1968,1153z"/>
	<path fill="#7699C1" stroke="#7699C1" d="M1864,997l104,156l49-105L1864,997z"/>
	<path fill="#7294BB" stroke="#7294BB" d="M1830,1122l138,31l-104-156L1830,1122z"/>
	<path fill="#6D97C3" stroke="#6D97C3" d="M1743,1023l87,99l34-125L1743,1023z"/>
	<path fill="#6A91BA" stroke="#6A91BA" d="M1711,1118l119,4l-87-99L1711,1118z"/>
	<path fill="#6694C2" stroke="#6694C2" d="M1658,983l53,135l32-95L1658,983z"/>
	<path fill="#638DB8" stroke="#638DB8" d="M1592,1169l119-51l-53-135L1592,1169z"/>
	<path fill="#5D8BB6" stroke="#5D8BB6" d="M1511,1121l81,48l66-186L1511,1121z"/>
	<path fill="#5B90BF" stroke="#5B90BF" d="M1489,1021l22,100l147-138L1489,1021z"/>
	<path fill="#538BBA" stroke="#538BBA" d="M1380,1033l131,88l-22-100L1380,1033z"/>
	<path fill="#5084B2" stroke="#5084B2" d="M1347,1137l164-16l-131-88L1347,1137z"/>
	<path fill="#4885B6" stroke="#4885B6" d="M1239,1025l108,112l33-104L1239,1025z"/>
	<path fill="#437DAC" stroke="#437DAC" d="M1229,1175l118-38l-108-112L1229,1175z"/>
	<path fill="#3D7BAA" stroke="#3D7BAA" d="M1173,1143l56,32l10-150L1173,1143z"/>
	<path fill="#3981B4" stroke="#3981B4" d="M1103,1000l70,143l66-118L1103,1000z"/>
	<path fill="#327DB1" stroke="#327DB1" d="M1006,1039l167,104l-70-143L1006,1039z"/>
	<path fill="#2E75A7" stroke="#2E75A7" d="M984,1153l189-10l-167-104L984,1153z"/>
	<path fill="#2876AC" stroke="#2876AC" d="M941,1037l43,116l22-114L941,1037z"/>
	<path fill="#266FA3" stroke="#266FA3" d="M939,1160l45-7l-43-116L939,1160z"/>
	<path fill="#206FA8" stroke="#206FA8" d="M742,1055l197,105l2-123L742,1055z"/>
	<path fill="#1B669C" stroke="#1B669C" d="M742,1184l197-24l-197-105V1184z"/>
	<path fill="#14619A" stroke="#14619A" d="M653,1155l89,29v-129L653,1155z"/>
	<path fill="#1466A0" stroke="#1466A0" d="M674,1058l-21,97l89-100L674,1058z"/>
	<path fill="#145E94" stroke="#145E94" d="M566,1163l87-8l21-97L566,1163z"/>
	<path fill="#14639B" stroke="#14639B" d="M564,1005l2,158l108-105L564,1005z"/>
	<path fill="#145B90" stroke="#145B90" d="M463,1150l103,13l-2-158L463,1150z"/>
	<path fill="#135F96" stroke="#135F96" d="M382,983l81,167l101-145L382,983z"/>
	<path fill="#13588C" stroke="#13588C" d="M279,1054l184,96l-81-167L279,1054z"/>
	<path fill="#134F7D" stroke="#134F7D" d="M300,1165l163-15l-184-96L300,1165z"/>
	<path fill="#134B77" stroke="#134B77" d="M173,1125l127,40l-21-111L173,1125z"/>
	<path fill="#13507E" stroke="#13507E" d="M208,1023l-35,102l106-71L208,1023z"/>
	<path fill="#124F7E" stroke="#124F7E" d="M94,976l79,149l35-102L94,976z"/>
	<path fill="#12466F" stroke="#12466F" d="M22,1176l151-51L94,976L22,1176z"/>
	<path fill="#124872" stroke="#124872" d="M-14,987l36,189l72-200L-14,987z"/>
	<path fill="#123F64" stroke="#123F64" d="M-50,1128l72,48l-36-189L-50,1128z"/>
	<path fill="#9194A4" stroke="#9194A4" d="M2658,1229l-1,175l13-219L2658,1229z"/>
	<path fill="#919EB5" stroke="#919EB5" d="M2586,1143l72,86l12-44L2586,1143z"/>
	<path fill="#909CB1" stroke="#909CB1" d="M2568,1229h90l-72-86L2568,1229z"/>
	<path fill="#8E9CB4" stroke="#8E9CB4" d="M2471,1179l97,50l18-86L2471,1179z"/>
	<path fill="#8D96AA" stroke="#8D96AA" d="M2482,1272l86-43l-97-50L2482,1272z"/>
	<path fill="#8B93A8" stroke="#8B93A8" d="M2329,1255l153,17l-11-93L2329,1255z"/>
	<path fill="#8998B2" stroke="#8998B2" d="M2326,1118l3,137l142-76L2326,1118z"/>
	<path fill="#8793AD" stroke="#8793AD" d="M2224,1231l105,24l-3-137L2224,1231z"/>
	<path fill="#8597B3" stroke="#8597B3" d="M2210,1142l14,89l102-113L2210,1142z"/>
	<path fill="#8292AE" stroke="#8292AE" d="M2115,1185l109,46l-14-89L2115,1185z"/>
	<path fill="#808CA6" stroke="#808CA6" d="M2062,1236l162-5l-109-46L2062,1236z"/>
	<path fill="#7C8CAA" stroke="#7C8CAA" d="M1968,1153l94,83l53-51L1968,1153z"/>
	<path fill="#7A87A3" stroke="#7A87A3" d="M1989,1268l73-32l-94-83L1989,1268z"/>
	<path fill="#7585A2" stroke="#7585A2" d="M1834,1250l155,18l-21-115L1834,1250z"/>
	<path fill="#7289AA" stroke="#7289AA" d="M1830,1122l4,128l134-97L1830,1122z"/>
	<path fill="#6D82A2" stroke="#6D82A2" d="M1752,1261l82-11l-4-128L1752,1261z"/>
	<path fill="#6A86AA" stroke="#6A86AA" d="M1711,1118l41,143l78-139L1711,1118z"/>
	<path fill="#6582A5" stroke="#6582A5" d="M1592,1169l160,92l-41-143L1592,1169z"/>
	<path fill="#637999" stroke="#637999" d="M1618,1299l134-38l-160-92L1618,1299z"/>
	<path fill="#5C7798" stroke="#5C7798" d="M1497,1248l121,51l-26-130L1497,1248z"/>
	<path fill="#597EA3" stroke="#597EA3" d="M1511,1121l-14,127l95-79L1511,1121z"/>
	<path fill="#54799E" stroke="#54799E" d="M1398,1223l99,25l14-127L1398,1223z"/>
	<path fill="#507DA5" stroke="#507DA5" d="M1347,1137l51,86l113-102L1347,1137z"/>
	<path fill="#49759C" stroke="#49759C" d="M1260,1234l138-11l-51-86L1260,1234z"/>
	<path fill="#44759D" stroke="#44759D" d="M1229,1175l31,59l87-97L1229,1175z"/>
	<path fill="#3C6E96" stroke="#3C6E96" d="M1110,1225l150,9l-31-59L1110,1225z"/>
	<path fill="#39719B" stroke="#39719B" d="M1173,1143l-63,82l119-50L1173,1143z"/>
	<path fill="#316F9B" stroke="#316F9B" d="M984,1153l126,72l63-82L984,1153z"/>
	<path fill="#2E6791" stroke="#2E6791" d="M1065,1276l45-51l-126-72L1065,1276z"/>
	<path fill="#296894" stroke="#296894" d="M939,1160l126,116l-81-123L939,1160z"/>
	<path fill="#27628E" stroke="#27628E" d="M880,1234l185,42l-126-116L880,1234z"/>
	<path fill="#1E6191" stroke="#1E6191" d="M742,1184l138,50l59-74L742,1184z"/>
	<path fill="#1A5988" stroke="#1A5988" d="M778,1282l102-48l-138-50L778,1282z"/>
	<path fill="#165483" stroke="#165483" d="M701,1287l77-5l-36-98L701,1287z"/>
	<path fill="#145789" stroke="#145789" d="M653,1155l48,132l41-103L653,1155z"/>
	<path fill="#145485" stroke="#145485" d="M566,1163l135,124l-48-132L566,1163z"/>
	<path fill="#144D79" stroke="#144D79" d="M529,1292l172-5l-135-124L529,1292z"/>
	<path fill="#144E7B" stroke="#144E7B" d="M463,1150l66,142l37-129L463,1150z"/>
	<path fill="#13466E" stroke="#13466E" d="M432,1304l97-12l-66-142L432,1304z"/>
	<path fill="#134771" stroke="#134771" d="M300,1165l132,139l31-154L300,1165z"/>
	<path fill="#134166" stroke="#134166" d="M276,1218l156,86l-132-139L276,1218z"/>
	<path fill="#13446C" stroke="#13446C" d="M173,1125l103,93l24-53L173,1125z"/>
	<path fill="#133F64" stroke="#133F64" d="M219,1243l57-25l-103-93L219,1243z"/>
	<path fill="#123A5C" stroke="#123A5C" d="M67,1250l152-7l-46-118L67,1250z"/>
	<path fill="#123A5B" stroke="#123A5B" d="M22,1176l45,74l106-125L22,1176z"/>
	<path fill="#12314E" stroke="#12314E" d="M-45,1233l112,17l-45-74L-45,1233z"/>
	<path fill="#123453" stroke="#123453" d="M-50,1128l5,105l67-57L-50,1128z"/>
	<path fill="#122B43" stroke="#122B43" d="M-71,1363l26-130l-5-105L-71,1363z"/>
	<path fill="#918B96" stroke="#918B96" d="M2559,1374l98,30l1-175L2559,1374z"/>
	<path fill="#9092A2" stroke="#9092A2" d="M2568,1229l-9,145l99-145H2568z"/>
	<path fill="#8E8E9E" stroke="#8E8E9E" d="M2482,1272l77,102l9-145L2482,1272z"/>
	<path fill="#8D8794" stroke="#8D8794" d="M2440,1371l119,3l-77-102L2440,1371z"/>
	<path fill="#8B8694" stroke="#8B8694" d="M2353,1355l87,16l42-99L2353,1355z"/>
	<path fill="#8A8A9B" stroke="#8A8A9B" d="M2329,1255l24,100l129-83L2329,1255z"/>
	<path fill="#868392" stroke="#868392" d="M2188,1385l165-30l-24-100L2188,1385z"/>
	<path fill="#85879A" stroke="#85879A" d="M2224,1231l-36,154l141-130L2224,1231z"/>
	<path fill="#817F90" stroke="#817F90" d="M2083,1373l105,12l36-154L2083,1373z"/>
	<path fill="#7F839A" stroke="#7F839A" d="M2062,1236l21,137l141-142L2062,1236z"/>
	<path fill="#7C7F96" stroke="#7C7F96" d="M1989,1268l94,105l-21-137L1989,1268z"/>
	<path fill="#7B798D" stroke="#7B798D" d="M2000,1364l83,9l-94-105L2000,1364z"/>
	<path fill="#77778B" stroke="#77778B" d="M1869,1372l131-8l-11-96L1869,1372z"/>
	<path fill="#737A92" stroke="#737A92" d="M1834,1250l35,122l120-104L1834,1250z"/>
	<path fill="#6E7891" stroke="#6E7891" d="M1752,1261l117,111l-35-122L1752,1261z"/>
	<path fill="#6B7087" stroke="#6B7087" d="M1718,1395l151-23l-117-111L1718,1395z"/>
	<path fill="#66718A" stroke="#66718A" d="M1618,1299l100,96l34-134L1618,1299z"/>
	<path fill="#626B83" stroke="#626B83" d="M1583,1356l135,39l-100-96L1583,1356z"/>
	<path fill="#5C6F8B" stroke="#5C6F8B" d="M1497,1248l86,108l35-57L1497,1248z"/>
	<path fill="#586C87" stroke="#586C87" d="M1485,1345l98,11l-86-108L1485,1345z"/>
	<path fill="#536F8F" stroke="#536F8F" d="M1398,1223l87,122l12-97L1398,1223z"/>
	<path fill="#526884" stroke="#526884" d="M1421,1409l64-64l-87-122L1421,1409z"/>
	<path fill="#4C6A8A" stroke="#4C6A8A" d="M1260,1234l161,175l-23-186L1260,1234z"/>
	<path fill="#46617E" stroke="#46617E" d="M1228,1377l193,32l-161-175L1228,1377z"/>
	<path fill="#3C6588" stroke="#3C6588" d="M1110,1225l118,152l32-143L1110,1225z"/>
	<path fill="#395D7C" stroke="#395D7C" d="M1179,1405l49-28l-118-152L1179,1405z"/>
	<path fill="#345F82" stroke="#345F82" d="M1065,1276l114,129l-69-180L1065,1276z"/>
	<path fill="#325673" stroke="#325673" d="M1038,1424l141-19l-114-129L1038,1424z"/>
	<path fill="#295374" stroke="#295374" d="M856,1352l182,72l27-148L856,1352z"/>
	<path fill="#255880" stroke="#255880" d="M880,1234l-24,118l209-76L880,1234z"/>
	<path fill="#1D547D" stroke="#1D547D" d="M778,1282l78,70l24-118L778,1282z"/>
	<path fill="#1B4C74" stroke="#1B4C74" d="M806,1370l50-18l-78-70L806,1370z"/>
	<path fill="#174D77" stroke="#174D77" d="M701,1287l105,83l-28-88L701,1287z"/>
	<path fill="#14476F" stroke="#14476F" d="M625,1358l181,12l-105-83L625,1358z"/>
	<path fill="#14456D" stroke="#14456D" d="M529,1292l96,66l76-71L529,1292z"/>
	<path fill="#143E61" stroke="#143E61" d="M563,1408l62-50l-96-66L563,1408z"/>
	<path fill="#143C60" stroke="#143C60" d="M432,1304l131,104l-34-116L432,1304z"/>
	<path fill="#133859" stroke="#133859" d="M400,1337l163,71l-131-104L400,1337z"/>
	<path fill="#133C5E" stroke="#133C5E" d="M276,1218l124,119l32-33L276,1218z"/>
	<path fill="#133553" stroke="#133553" d="M261,1386l139-49l-124-119L261,1386z"/>
	<path fill="#133655" stroke="#133655" d="M219,1243l42,143l15-168L219,1243z"/>
	<path fill="#132E48" stroke="#132E48" d="M223,1384l38,2l-42-143L223,1384z"/>
	<path fill="#13304C" stroke="#13304C" d="M67,1250l156,134l-4-141L67,1250z"/>
	<path fill="#12253B" stroke="#12253B" d="M28,1415l195-31L67,1250L28,1415z"/>
	<path fill="#122135" stroke="#122135" d="M-71,1363l99,52l39-165L-71,1363z"/>
	<path fill="#12283F" stroke="#12283F" d="M-45,1233l-26,130l138-113L-45,1233z"/>
	<path fill="#666578" stroke="#666578" d="M1421,1409l-383,15l1619-20L1421,1409z"/>
	<path fill="#756E7D" stroke="#756E7D" d="M1718,1395l-297,14l1236-5L1718,1395z"/>
	<path fill="#827784" stroke="#827784" d="M2188,1385l-470,10l939,9L2188,1385z"/>
	<path fill="#8B7F89" stroke="#8B7F89" d="M2440,1371l-252,14l469,19L2440,1371z"/>
	<path fill="#8F838B" stroke="#8F838B" d="M2559,1374l-119-3l217,33L2559,1374z"/>
	<path fill="#887F8B" stroke="#887F8B" d="M2353,1355l-165,30l252-14L2353,1355z"/>
	<path fill="#797282" stroke="#797282" d="M2083,1373l-365,22l470-10L2083,1373z"/>
	<path fill="#726F81" stroke="#726F81" d="M1869,1372l-151,23l365-22L1869,1372z"/>
	<path fill="#797385" stroke="#797385" d="M2000,1364l-131,8l214,1L2000,1364z"/>
	<path fill="#5C647A" stroke="#5C647A" d="M1583,1356l-162,53l297-14L1583,1356z"/>
	<path fill="#56647C" stroke="#56647C" d="M1485,1345l-64,64l162-53L1485,1345z"/>
	<path fill="#3D546D" stroke="#3D546D" d="M1179,1405l-141,19l383-15L1179,1405z"/>
	<path fill="#445972" stroke="#445972" d="M1228,1377l-49,28l242,4L1228,1377z"/>
	<path fill="#143452" stroke="#143452" d="M563,1408l-535,7l1010,9L563,1408z"/>
	<path fill="#1A4366" stroke="#1A4366" d="M806,1370l-243,38l475,16L806,1370z"/>
	<path fill="#224B6C" stroke="#224B6C" d="M856,1352l-50,18l232,54L856,1352z"/>
	<path fill="#143F64" stroke="#143F64" d="M625,1358l-62,50l243-38L625,1358z"/>
	<path fill="#13283F" stroke="#13283F" d="M261,1386l-233,29l535-7L261,1386z"/>
	<path fill="#13324F" stroke="#13324F" d="M400,1337l-139,49l302,22L400,1337z"/>
	<path fill="#132338" stroke="#132338" d="M223,1384l-195,31l233-29L223,1384z"/>
</g>
</svg>
